<?xml version="1.0" encoding="UTF-8"?>
<svg id="Layer_2" data-name="Layer 2" xmlns="http://www.w3.org/2000/svg" viewBox="0 0 577.3 135.2">
  <defs>
    <style>
      .cls-1 {
        fill: #fff;
      }

      .cls-2 {
        fill: #1d1d1b;
      }
    </style>
  </defs>
  <g id="Layer_1-2" data-name="Layer 1">
    <g>
      <path class="cls-1" d="m59.2,131.6c-3.2,0-6.3-.2-10-.8-7.6-1.1-12.7-6.5-13.7-14.2-1.1-9.3-.8-39.5,0-56.2,0-2.1-.2-3.5-.9-4.2-1.4-1.4-5.2-1.6-8.9-1.6-6.4,0-19.7,0-21.6-12.4-.9-5.7-.7-9.6,0-14.4,1.8-13,12.7-13.7,20-14.1.6,0,1.3,0,1.9-.1,7.5-.5,23.6-.6,32.6-.6s24.2.4,35.4,1.1c8.9.5,18.6,2,20.8,12.5,1.2,5.8,1,9.1,0,14.9-2.1,12.7-14.9,12.7-19.7,12.7s-10,.9-11.7,2.8c-.4.4-1.5,1.6-1.1,5,2.4,24,1,48,.5,53v.4c-.9,9.3-5.6,14.5-14.1,15.6-3.4.4-6.5.7-9.4.7Z"/>
      <path class="cls-2" d="m58.6,16.3c11.5,0,24.9.5,35.2,1.1,10.1.6,16.1,2.4,17.6,9.7,1.1,5.3.9,8.2,0,13.7-1.4,8.3-8.5,9.8-16.3,9.8s-17.2,2.1-16.3,11.6c2.3,23.2,1,47,.5,52.4-.3,2.9-.6,11.5-11.1,12.9-3.4.4-6.2.6-8.9.6s-6.2-.3-9.5-.8c-7.5-1.1-10.2-6.6-10.7-11.2-1.1-8.7-.8-38.4,0-55.6.4-8.5-4.9-9.5-13.3-9.5s-16.8-.9-18.2-9.5c-.8-5.5-.6-9.1,0-13.4,1.5-11.1,10.9-10.6,18.7-11.2,7.7-.6,25.1-.6,32.3-.6m0-7c-9,0-25.3,0-32.8.6-.6,0-1.3,0-1.9.1-7.3.4-21,1.3-23.2,17.1-.7,5-.9,9.3,0,15.4,2.4,15.4,18.9,15.4,25.1,15.4s5.6.3,6.2.5c0,.3.1.8,0,1.7-.8,16.9-1.1,47.4,0,56.8,1.1,9.3,7.5,15.9,16.7,17.3,3.9.6,7.2.8,10.5.8s6.3-.2,9.8-.7c8.2-1.1,12.3-5.5,14.3-9,2.2-3.9,2.6-7.9,2.8-9.8v-.3c.5-5.2,1.9-29.4-.5-53.7-.1-1.3,0-2.1.2-2.3.2-.3,1.8-1.6,9.1-1.6s9-.3,13.6-2.5c5.2-2.5,8.6-7.1,9.6-13.2,1-6.1,1.3-9.9,0-16.2-2.9-14-17.1-14.9-24-15.3-11.2-.7-24.6-1.1-35.6-1.1h0Z"/>
    </g>
    <g>
      <path class="cls-1" d="m113,131.7c-8.1,0-13.6-1.9-16.7-5.7-2.9-3.6-3.7-8.6-2.3-15.2,5.9-28.6,13-48.9,24.8-78.6l.2-.4c3.2-7.9,7.5-18.7,17.5-19.8,1.8-.2,4.5-.3,7.4-.3s5.3.1,6.9.3c10.6,1.3,13.9,7.4,17,13.2.4.7.8,1.5,1.2,2.3,8.6,15.3,24.6,58.3,30.3,84.8,1.3,6.1-.6,10.1-2.4,12.4-4.6,5.7-13,6.5-17.6,6.5-14.8,0-19.1-7.5-22.3-22.3-1.8-8.1-4.7-8.1-9.6-8.1s-8.3,0-10.8,9.5c-3.9,14.7-7.5,21.6-23.4,21.6Z"/>
      <path class="cls-2" d="m143.8,15c2.5,0,4.9,0,6.4.3,10,1.2,11.8,6.9,15.7,13.7,8.5,15.1,24.3,57.6,29.9,83.8,2.4,11.1-7.3,14.7-16.7,14.7s-15.8-5.3-18.9-19.5c-2.3-10.6-7.5-10.9-13-10.9s-11.1.5-14.2,12.1c-3.8,14.2-6.5,19-20,19s-18-5.2-15.6-16.8c6-29.5,13.6-50.4,24.7-78,3.1-7.7,6.7-17.1,14.8-18.1,1.7-.2,4.4-.3,7-.3m0-7c-3,0-5.8.1-7.7.3-12.1,1.4-17.1,13.8-20.4,22l-.2.4c-12,29.9-19.1,50.4-25,79.2-1.6,7.8-.6,13.7,3,18.2,3.9,4.7,10.2,7,19.5,7,19,0,22.9-9.6,26.8-24.2,1.4-5.2,2.6-6.3,2.8-6.4.7-.5,3.4-.5,4.6-.5s3.3,0,4.1.4c.6.3,1.4,1.8,2.1,4.9,2.9,13.2,7,25,25.7,25s16.3-2.8,20.4-7.8c2.3-2.9,4.7-7.8,3.1-15.3-5.7-26.8-21.9-70.3-30.6-85.8-.4-.8-.8-1.5-1.2-2.2-3.2-6-7.3-13.5-19.7-15-2.3-.3-5.6-.3-7.3-.3h0Z"/>
    </g>
    <g>
      <path class="cls-1" d="m146.7,79.7c-5.6,0-7.4-.4-7.9-.8-.3-1.1.9-4.8,3.5-10.9,2.2-5.2,3.5-6.8,4.1-7.3.7.5,2.2,2.3,5.2,8.2,3.8,7.5,3.6,9.2,3.4,9.5,0,0-.9,1.3-8.2,1.3Z"/>
      <path class="cls-2" d="m148.7,63.3h0,0m-2.2,3.7c.5.9,1.1,2.1,1.9,3.5,1.3,2.6,2.1,4.4,2.5,5.5-1,.1-2.3.2-4.2.2s-2.9,0-3.9,0c.5-1.4,1.3-3.5,2.6-6.7.4-.9.8-1.7,1.1-2.4m-.3-9.9c-2.3,0-4.5,3.2-7.2,9.6-6.4,14.8-5.3,16.6,7.7,16.6s14-4,8-15.9c-3.5-6.9-6-10.2-8.4-10.2h0Z"/>
    </g>
    <g>
      <path class="cls-1" d="m218.6,130.3c-18.8,0-19.1-11.3-19.5-23.3,0-1.5,0-3.1-.2-4.7-.4-9.2-.3-16-.3-24.5,0-3.9,0-8.1,0-13.1v-2.9c0-14,0-27.3,1-34.5,2.3-16.1,10.8-16.1,22.6-16.1h3.5c12.9,0,17.3,3,17.3,20.8s.3,3.9.5,4.4c2.3-.4,8.1-4.7,17.1-12.9l.3-.3c6-5.4,10.7-9.7,16.3-9.7s7.4,1.9,11.2,6.1c3.7,4.1,7.1,8.6,6.7,13.7-.4,6-5.8,10.9-13.9,17.6-6.4,5.3-11,9.1-11.1,11.5-.1,2.4,4.1,7.1,9.3,12.4,2.2,2.3,4.3,4.4,6.2,6.3,11.4,11.7,17.2,17.6,17,24.3-.1,5-3.7,9.3-9.4,14.6-5.8,5.4-10,8.5-14.7,8.5h0c-6.3,0-11-5.3-20.4-15.9-1.7-1.9-3.6-4-5.6-6.3-6.9-7.7-10.1-9.8-11.4-10.5-.5,1.9-.5,6.6-.5,10.2v1.2c0,8.6-.3,14.5-3.7,18.4-3.5,4-9.4,4.8-18.4,4.8Z"/>
      <path class="cls-2" d="m225.9,14.6c10.4,0,13.8.8,13.8,17.3s1.1,7.9,3.7,7.9,9.9-5,19.8-13.9c5.7-5.2,9.9-9.1,14.2-9.1s5.4,1.5,8.6,5c9.8,10.8,7,14.7-6.9,26.2-15.6,12.9-16.7,13.9-2.1,29,23.6,24.4,28.6,26.6,13.9,40.2-5.4,5-8.9,7.5-12.3,7.5-5.6,0-10.7-7-23.4-21-7.7-8.5-12.1-11.8-14.6-11.8-3.6,0-3.4,6.7-3.4,15.1,0,16.6-1.3,19.7-18.6,19.7s-15.4-9.4-16.1-24.7c-.6-13.3-.2-21.6-.2-37.5s0-29.4,1-36.9c1.9-13.1,7.2-13.1,19.2-13.1s2.4,0,3.5,0m0-7c-.5,0-1.1,0-1.7,0-.6,0-1.2,0-1.8,0-12,0-23.4,0-26.1,19.1-1.1,7.5-1.1,20.9-1.1,35v2.9c0,5,0,9.3,0,13.1,0,8.6-.2,15.4.3,24.7,0,1.6.1,3.1.2,4.6.2,7,.4,13,3.3,18,4.6,7.8,13.4,8.8,19.7,8.8s16.2-.5,21-6c4.2-4.8,4.6-11.6,4.6-20.7v-1.2c0-1.1,0-2.2,0-3.4,1.5,1.4,3.4,3.3,5.8,6,2.1,2.3,4,4.4,5.6,6.3,9.8,11,15.1,17.1,23,17.1s11.7-4.4,17.1-9.4c5.2-4.8,10.3-10.1,10.5-17.1.2-8.2-5.9-14.4-18-26.8-1.9-1.9-3.9-4-6.2-6.3-2.1-2.1-7.4-7.7-8.3-9.8,1-1.7,5.6-5.6,9.8-9,8.8-7.3,14.7-12.6,15.2-20,.5-6.5-3.6-11.9-7.6-16.3-4.4-4.9-8.9-7.3-13.8-7.3-7,0-12.4,4.9-18.7,10.6l-.3.3c-5.7,5.1-9.4,8.2-11.8,9.9,0-8.3-1-14.3-4.9-18.4-4.4-4.6-10.8-4.6-15.9-4.6h0Z"/>
    </g>
    <g>
      <path class="cls-1" d="m324.2,130.6c-5.9,0-21.6,0-21.6-17.2v-49c0-.9,0-2,0-3.2-.2-10.7,0-17.3,4.5-18.9.8-.3,1.6-.4,2.4-.4,2.4,0,4.1,1.2,5.8,2.3,2.2,1.5,4.7,3.2,10.2,3.2s7.8-1.6,10.1-3c1.7-1.1,3.5-2.2,5.9-2.2s1.5.1,2.3.3c4.7,1.5,4.9,8.6,4.6,19.3,0,1.2,0,2.2,0,3,0,4,0,10.7-.2,18.4-.1,9.3-.3,19.8-.3,27.5,0,18.4-9.3,19.8-23.5,19.8Z"/>
      <path class="cls-2" d="m309.4,45.4c3.6,0,5.6,5.6,16,5.6s12.4-5.1,16-5.1c.4,0,.8,0,1.2.2,3,.9,2,14.3,2,18.9,0,9-.4,32-.4,45.8s-5.1,16.3-20,16.3-18.1-2.8-18.1-13.7v-49c0-5.7-.8-17.8,2.1-18.8.5-.2.9-.2,1.3-.2m0-7c-1.2,0-2.4.2-3.6.6-7.2,2.5-7,11.7-6.8,22.3,0,1.2,0,2.2,0,3.1v49c0,7.6,2.7,13.2,7.9,16.7,4.1,2.7,9.4,3.9,17.2,3.9s14.5-.3,19.6-4c6.5-4.7,7.3-12.8,7.3-19.3s.1-18.2.3-27.4c0-7.7.2-14.4.2-18.4s0-1.7,0-2.9c.3-10.5.6-20.4-7-22.8-1.1-.3-2.2-.5-3.3-.5-3.3,0-5.7,1.5-7.7,2.7-2.1,1.3-4.1,2.5-8.3,2.5s-6.1-1.2-8.2-2.6c-1.8-1.2-4.3-2.9-7.8-2.9h0Z"/>
    </g>
    <g>
      <path class="cls-1" d="m325.6,43c-14.8,0-20-10.9-20-20.2s6.1-19.3,19.6-19.3,20,10.6,20,19.7-10.2,19.8-19.6,19.8Z"/>
      <path class="cls-2" d="m325.2,7c12.1,0,16.5,8.4,16.5,16.2s-8.8,16.3-16.1,16.3c-12.7,0-16.5-9-16.5-16.7s3.3-15.8,16.1-15.8m0-7c-10,0-15.6,4.7-18.5,8.6-4.2,5.6-4.6,11.8-4.6,14.2,0,11.8,7.3,23.7,23.5,23.7s23.1-8.9,23.1-23.3-7.3-23.2-23.5-23.2h0Z"/>
    </g>
    <g>
      <path class="cls-1" d="m386.8,129.2c-28.1,0-35.7,0-35.7-15.4s8.1-12.5,14.6-12.5h2.3c1.2,0,1.7-.4,2.1-.7,3-3,3-14,2.9-26.7v-2.8c0-4.4,0-8.3,0-11.7,0-3.3,0-6.4,0-8.9-3.7,6.5-7.1,12-12.7,12s-4.2-.7-6.7-2.3c-2.3-1.5-4.9-3.3-5.6-6.5-1-4.4,1.8-9.2,9.4-20.9,2.7-4.1,4.7-7.4,6.3-10.1,6.3-10.6,7.8-12.3,20.1-12.3s11.7,0,15,3.1c3.4,3.2,4,8.6,4,17.4v61.5c0,7.9,2.2,8.2,6.8,8.2h1.7c6.6,0,13,1,13,13.1s0,1.1,0,1.6c0,3.6,0,6.9-2.5,9.5-3.7,3.8-11.3,4.3-35.3,4.3Z"/>
      <path class="cls-2" d="m384.1,13.8c12.9,0,15.5,0,15.5,17v61.5c0,9.6,3.6,11.7,10.3,11.7s1.2,0,1.7,0c5.8,0,9.5.4,9.5,9.7s2.1,12-34.3,12-32.2-.5-32.2-11.9,3.7-9,11.1-9,1.5,0,2.3,0c9,0,8.5-13.2,8.5-33.8s.7-26.2-1-27c-.4-.2-.7-.2-1-.2-1.2,0-2.2,1.2-4.1,4.5-4,6.9-6.4,10.7-9.9,10.7s-2.9-.6-4.8-1.8c-6.3-4-5.9-5.9,4.9-22.5,12.8-19.7,9.8-20.8,23.4-20.8m0-7c-6,0-10.2.2-14.1,2.7-3.6,2.3-5.6,5.7-9,11.3-1.6,2.6-3.6,5.9-6.2,10-7.6,11.7-11.2,17.5-9.9,23.5,1.1,4.9,5,7.4,7.1,8.7,3,1.9,5.8,2.9,8.6,2.9s6.7-1.6,9.2-4.2c0,2.8,0,5.8,0,9.2v2.8c0,6.9,0,12.9-.4,17.5-.4,4.2-1,5.8-1.3,6.5h-1s-1.1,0-1.1,0c-6.3,0-18.1,0-18.1,16s0,13.4,9.8,16.9c5.6,2,13.9,2.1,29.4,2.1,24.6,0,32.9-.4,37.8-5.4,3.6-3.6,3.5-8.1,3.5-12,0-.5,0-1,0-1.6,0-16.7-11.5-16.7-16.5-16.7h-.9s-.9,0-.9,0c-1.7,0-2.5-.2-2.8-.3-.2-.3-.6-1.5-.6-4.4V30.8c0-9.8-.8-15.9-5.1-20-4.3-4-9.8-4-17.4-4h0Z"/>
    </g>
    <g>
      <path class="cls-1" d="m460.7,129.2c-25,0-38.8-12.7-38.9-35.9,0-15.6,7-22.8,13-26.6-8.6-5-13-13.6-13-25.5,0-20.8,11.3-31.4,33.7-31.4s19.4,1.3,27.9,9.8c5.2,5.3,7.8,12.3,7.7,20.9-.2,15-6.1,22-11.4,25.6,6,3.5,13.2,10.3,14.1,25.4.7,12-2.2,21.8-8.5,28.5-5.8,6.2-14.1,9.3-24.5,9.3Z"/>
      <path class="cls-2" d="m455.5,13.3c15,0,32.3,6.4,32,27.2-.3,19.8-11.1,23.8-15.8,25.8,5.5,2.4,17.3,6.2,18.5,25.4,1.2,19.5-7.8,34.1-29.5,34.1s-35.3-11-35.4-32.4c-.1-20,12.1-24.1,17.5-26.9-4.2-1.3-17.5-5.2-17.5-25.2s15.8-27.9,30.2-27.9m0-7c-10.4,0-18.4,2.1-24.5,6.4-8.4,5.9-12.7,15.5-12.7,28.5s3.1,18.7,9.3,24.6c.4.4.8.7,1.2,1.1-5.4,4.8-10.6,12.7-10.5,26.5,0,12.7,3.9,22.6,11.5,29.4,7.3,6.6,17.7,10,31,10s20.7-3.6,27.1-10.4c6.9-7.4,10.2-18.1,9.4-31.1-.8-13.4-6.2-21-11.8-25.4,4.7-4.6,8.9-12.3,9.1-25.3.1-9.5-2.8-17.4-8.7-23.4-9.3-9.5-23-10.9-30.3-10.9h0Z"/>
    </g>
    <g>
      <path class="cls-1" d="m457.5,97.5c-4.9,0-5.9-4.1-5.9-7.5s3.4-6.6,5.8-6.6,6,2.1,6,7-2.8,7.1-5.9,7.1Z"/>
      <path class="cls-2" d="m457.4,86.9c0,0,2.5.4,2.5,3.5s-.7,3.6-2.4,3.6-2.4,0-2.4-4,1.8-3.1,2.3-3.1m0-7c-4.3,0-9.3,4.1-9.3,10.1s3.9,11,9.4,11,9.4-2.2,9.4-10.6-5.4-10.5-9.5-10.5h0Z"/>
    </g>
    <g>
      <path class="cls-1" d="m456.7,47.8c-3.6,0-6-2.7-6-6.7s.6-6.7,5.9-6.7,3.2.6,4.2,1.7c1.3,1.3,1.8,3.3,1.7,5.7-.1,2.2-1.1,6-5.8,6Z"/>
      <path class="cls-2" d="m456.5,37.9c.7,0,1.3.2,1.7.6.6.6.8,1.7.7,3.1-.2,2.7-1.3,2.7-2.3,2.7-2.2,0-2.5-2-2.5-3.2,0-3.2,1.5-3.2,2.4-3.2m0-7c-5.8,0-9.4,4.2-9.4,10.2s4,10.2,9.5,10.2,8.9-3.5,9.3-9.2c.4-6.8-3.8-11.2-9.4-11.2h0Z"/>
    </g>
    <g>
      <path class="cls-1" d="m531.3,127.4c-11.8,0-18.1-2.1-25.1-4.9-4.6-1.8-7.6-3.6-8.8-6.8-1.5-4.1.6-8.2,4.8-16.4l.2-.5c2.4-4.7,4.9-8.9,9.7-8.9s3.4.5,5.4,1.2c2.7.9,6,2,11.1,2.4.4,0,.7,0,1.1,0,2.5,0,4.7-.8,6.2-2.4,1.5-1.6,2.2-3.7,2.1-6.1-.3-5.2-5.2-6-8.1-6s-3.4.2-5.3.7c-3.6.9-6.3,1.3-8.6,1.3-8.7,0-10.7-6.4-12.6-12.6-2.5-8-3.2-14.1,10.4-19.2,2-.8,8.2-3.1,9.1-5.3,0-.2.3-.8-.4-2.3-.5-1-1.2-1.7-3.2-1.7s-5.6.7-11.8,4.3c-1.9,1.1-3.7,2-5.7,2-4.7,0-7.2-4.8-10.3-11.5-4.5-10-.9-13.1,4.7-16.4l.7-.4c3.3-1.9,12.2-6.5,23.4-6.8.7,0,1.3,0,2,0,13.2,0,21.9,4.2,26.6,12.7,4.6,8.5,5.4,21.6,1.3,29.8,10,2.7,20,11.6,22.7,27.8,2.1,12.3-.6,24-7.4,32.3-6.9,8.4-17.6,13-31,13.4-1.2,0-2.3,0-3.4,0Z"/>
      <path class="cls-2" d="m522.4,14.9c8.7,0,18.5,1.7,23.5,10.9,5.6,10.2,4.5,26.2-2.2,30.7,0,0,0,0,0,0,11,0,22.9,8.8,25.8,25.7,3.4,20.2-6.5,40.8-35,41.6-1.2,0-2.3,0-3.3,0-10.9,0-16.6-1.8-23.8-4.7-9.7-3.9-8.5-6-2-18.8,2.7-5.3,4.3-6.9,6.6-6.9s7,2.8,16.2,3.6c.5,0,1,0,1.4,0,7.5,0,12.1-5.6,11.8-12.2-.3-5.9-4.9-9.3-11.6-9.3-1.9,0-4,.3-6.2.8-3.2.8-5.8,1.2-7.8,1.2-5.8,0-7.2-3.5-9.2-10.1-2.2-7.2-2.8-10.7,8.3-14.9,8.6-3.2,13.5-6.3,10.6-12.4-1.2-2.6-3.4-3.8-6.3-3.8-3.6,0-8.3,1.8-13.5,4.7-1.6.9-2.8,1.5-3.9,1.5-2.2,0-3.9-2.3-7.1-9.4-3.8-8.4-1-9.4,4-12.4,5-3,13-6.1,21.7-6.3.6,0,1.3,0,1.9,0m0-7h0c-.7,0-1.4,0-2.1,0-12,.3-21.5,5.2-25.1,7.3l-.7.4c-2.8,1.6-6,3.5-7.6,7.3-2,4.7-.3,9.7,1.5,13.6,2.9,6.3,6.1,13.5,13.5,13.5s5.2-1.2,7.4-2.4c4.6-2.6,7.4-3.5,9-3.7-1.1.6-2.8,1.4-5.6,2.5-5.2,2-10.8,4.7-13.1,10.2-2,4.8-.6,9.5.6,13.3,2,6.4,4.6,15.1,15.9,15.1s5.6-.5,9.5-1.5c1.6-.4,3.1-.6,4.4-.6,4.4,0,4.5,1.8,4.6,2.6,0,1.4-.3,2.7-1.2,3.5-1,1.1-2.5,1.3-3.6,1.3s-.5,0-.8,0c-4.7-.4-7.8-1.5-10.3-2.3-2.2-.7-4.2-1.4-6.5-1.4-7.3,0-10.7,6.7-12.8,10.8l-.2.5c-4.4,8.5-7,13.7-4.9,19.2,1.8,4.9,6.5,7.1,10.8,8.8,7.1,2.8,13.9,5.2,26.4,5.2s2.3,0,3.5,0c18.2-.5,28.3-8.3,33.6-14.7,7.4-9,10.4-21.8,8.1-35.1-2.7-15.8-11.8-25.3-21.6-29.3,2.9-9.1,1.6-21.1-2.8-29.4-5.3-9.6-15.2-14.5-29.7-14.5h0Z"/>
    </g>
  </g>
</svg>